<svg xmlns="http://www.w3.org/2000/svg" fill="none" viewBox="0 0 24 24" height="24" width="24">
  <g id="sentiment-melt">
    <path id="Union" fill="#000000" d="M20 20c0 -0.5523 -0.4477 -1 -1 -1h-0.292c-0.3943 -0.0001 -0.7522 -0.2318 -0.9131 -0.5918s-0.095 -0.7813 0.168 -1.0752C19.2303 15.917 20 14.0496 20 12c0 -4.41828 -3.5817 -8 -8 -8 -4.41828 0 -8 3.58172 -8 8 0 2.0496 0.76974 3.917 2.03711 5.333 0.26294 0.2939 0.32886 0.7152 0.16797 1.0752 -0.16092 0.36 -0.5188 0.5917 -0.91309 0.5918H5c-0.55228 0 -1 0.4477 -1 1zM8.24512 10.624c-0.51797 1.4176 -0.20635 3.0668 0.92871 4.2022l0.02929 0.0312c0.93758 1.0511 1.91818 0.9776 3.06058 1.0655 0.5267 0.0405 1.2358 0.1287 1.7656 0.666 0.5301 0.5377 0.7216 1.3535 0.7217 2.4111H13.25c0 -0.9414 -0.1833 -1.251 -0.2891 -1.3584 -0.1063 -0.1076 -0.2951 -0.1838 -0.8125 -0.2236 -0.9454 -0.0727 -2.63843 0.029 -4.0566 -1.5537 -1.54482 -1.5624 -1.96213 -3.8179 -1.25489 -5.7539zm7.99808 0.5801c0.4123 0.0001 0.766 0.1479 1.0605 0.4424 0.2945 0.2946 0.4414 0.6482 0.4414 1.0605 0 0.4124 -0.1469 0.766 -0.4414 1.0606 -0.2945 0.2945 -0.6482 0.4423 -1.0605 0.4424 -0.4125 0 -0.7669 -0.1478 -1.0616 -0.4424 -0.2944 -0.2946 -0.4414 -0.6482 -0.4414 -1.0606 0 -0.4123 0.147 -0.7659 0.4414 -1.0605 0.2947 -0.2946 0.6491 -0.4424 1.0616 -0.4424M11.293 6.25488c0.4123 0 0.7659 0.14694 1.0605 0.44141 0.2945 0.29451 0.4423 0.64827 0.4424 1.06055 0 0.41247 -0.1478 0.76689 -0.4424 1.06152 -0.2946 0.29446 -0.6482 0.44141 -1.0605 0.44141 -0.4124 0 -0.766 -0.14695 -1.0606 -0.44141 -0.29461 -0.29463 -0.44236 -0.64905 -0.44236 -1.06152 0.00011 -0.41228 0.14787 -0.76604 0.44236 -1.06055 0.2946 -0.29447 0.6482 -0.44141 1.0606 -0.44141M22 22H2v-2c0 -1.136 0.63145 -2.1246 1.5625 -2.6338C2.57445 15.8155 2 13.9744 2 12 2 6.47715 6.47715 2 12 2c5.5228 0 10 4.47715 10 10 0 1.9746 -0.5753 3.8154 -1.5635 5.3662C21.368 17.8753 22 18.8637 22 20z" stroke-width="1"></path>
  </g>
</svg>